<svg width="8" height="8" viewBox="0 0 8 8" fill="none" xmlns="http://www.w3.org/2000/svg">
<path d="M4 3L1.5 0.5C1.22386 0.223858 0.776142 0.223858 0.5 0.5C0.223858 0.776142 0.223858 1.22386 0.5 1.5L3 4L0.5 6.5C0.223858 6.77614 0.223858 7.22386 0.5 7.5C0.776142 7.77614 1.22386 7.77614 1.5 7.5L4 5L6.5 7.5C6.77614 7.77614 7.22386 7.77614 7.5 7.5C7.77614 7.22386 7.77614 6.77614 7.5 6.5L5 4L7.5 1.5C7.77614 1.22386 7.77614 0.776142 7.5 0.5C7.22386 0.223858 6.77614 0.223858 6.5 0.5L4 3Z" fill="white"/>
</svg>
