<svg width="32" height="32" viewBox="0 0 32 32" fill="none" xmlns="http://www.w3.org/2000/svg">
<path d="M16 0C7.15256 0 0 7.15256 0 16C0 24.8474 7.15256 32 16 32C24.8474 32 32 24.8474 32 16C32 7.15256 24.8474 0 16 0ZM11.1706 2.17914C10.3264 3.3636 9.60654 4.6135 9.0045 5.92229H5.3726C6.95624 4.24703 8.93906 2.95133 11.1706 2.17914ZM4.2274 7.28344H8.42863C7.44049 9.82904 6.89734 12.5448 6.81881 15.3194H1.38078C1.5182 12.3157 2.55215 9.54765 4.2274 7.28344V7.28344ZM4.2274 24.7166C2.55215 22.4524 1.5182 19.6843 1.38078 16.6806H6.81881C6.89734 19.4552 7.46012 22.171 8.45481 24.7166H4.2274ZM5.3726 26.0777H9.03722C9.64581 27.3865 10.3656 28.6495 11.1967 29.8339C8.95869 29.0618 6.96278 27.7595 5.3726 26.0777ZM15.3194 30.6258C14.6389 30.593 13.9648 30.5145 13.3104 30.3967C12.2241 29.0552 11.2949 27.609 10.5423 26.0843H15.3194V30.6258V30.6258ZM15.3194 24.7166H9.92065C8.86708 22.1775 8.26503 19.4618 8.17996 16.6806H15.3194V24.7166ZM15.3194 15.3194H8.17996C8.26503 12.5448 8.86053 9.82249 9.90757 7.28344H15.3194V15.3194V15.3194ZM15.326 5.92229H15.3194H10.5292C11.2883 4.38446 12.2176 2.93824 13.3104 1.60982C13.9648 1.48548 14.6389 1.4135 15.326 1.38078V5.92229ZM27.7726 7.28344C29.4479 9.54765 30.4883 12.3092 30.6192 15.3194H25.1812C25.1027 12.5448 24.5399 9.82904 23.5452 7.28344H27.7726ZM26.6274 5.92229H22.9628C22.3542 4.6135 21.6344 3.35051 20.7967 2.16605C23.0413 2.93824 25.0372 4.24049 26.6274 5.92229ZM16.6806 1.38078C17.3611 1.4135 18.0352 1.49202 18.6896 1.60982C19.7759 2.95133 20.7051 4.39755 21.4577 5.92229H16.6806V1.38078ZM16.6806 7.28344H22.0793C23.1329 9.81595 23.735 12.5382 23.82 15.3194H16.6806V7.28344V7.28344ZM16.6806 16.6806H23.82C23.735 19.4552 23.1395 22.1775 22.0924 24.7166H16.6806V16.6806V16.6806ZM16.674 30.6192V26.0777H16.6806H21.4708C20.7117 27.6155 19.7824 29.0618 18.6896 30.3902C18.0352 30.5145 17.3611 30.5865 16.674 30.6192V30.6192ZM20.7967 29.8339C21.6278 28.6495 22.3476 27.3865 22.9497 26.0777H26.6339C25.0372 27.7595 23.0413 29.0618 20.7967 29.8339ZM23.5256 24.7166C24.5072 22.171 25.0634 19.4552 25.1746 16.6806H30.6258C30.4883 19.6843 29.4544 22.4524 27.7791 24.7166H23.5256Z" fill="white"/>
</svg>
